<?xml version="1.0" ?><!DOCTYPE svg  PUBLIC '-//W3C//DTD SVG 1.1//EN'  'http://www.w3.org/Graphics/SVG/1.1/DTD/svg11.dtd'><svg enable-background="new 0 0 30 30" height="30px" id="Dribbble" version="1.1" viewBox="0 0 30 30" width="30px" xml:space="preserve" xmlns="http://www.w3.org/2000/svg" xmlns:xlink="http://www.w3.org/1999/xlink"><path clip-rule="evenodd" d="M15,30C6.729,30,0,23.26,0,15S6.729,0,15,0c8.271,0,15,6.74,15,15  S23.271,30,15,30L15,30z M27.65,17.031c-0.438-0.139-3.965-1.189-7.98-0.547c1.676,4.599,2.357,8.345,2.488,9.122  C25.033,23.666,27.08,20.592,27.65,17.031L27.65,17.031z M20.006,26.778c-0.191-1.123-0.936-5.035-2.734-9.703  c-0.027,0.01-0.057,0.019-0.084,0.028c-7.227,2.515-9.821,7.521-10.052,7.99c2.172,1.692,4.903,2.701,7.864,2.701  C16.775,27.795,18.467,27.433,20.006,26.778L20.006,26.778z M5.481,23.556c0.291-0.496,3.807-6.311,10.415-8.443  c0.166-0.055,0.334-0.105,0.504-0.152c-0.32-0.728-0.672-1.455-1.039-2.172C8.964,14.7,2.755,14.62,2.194,14.609  C2.19,14.739,2.188,14.869,2.188,15C2.188,18.286,3.436,21.287,5.481,23.556L5.481,23.556z M2.458,12.379  c0.573,0.008,5.852,0.031,11.845-1.559c-2.123-3.769-4.412-6.938-4.75-7.399C5.969,5.109,3.29,8.409,2.458,12.379L2.458,12.379z   M11.998,2.561c0.354,0.474,2.681,3.638,4.781,7.49c4.555-1.705,6.484-4.294,6.715-4.622C21.23,3.424,18.256,2.205,15,2.205  C13.967,2.205,12.961,2.328,11.998,2.561L11.998,2.561z M24.918,6.908c-0.27,0.365-2.418,3.114-7.154,5.045  c0.299,0.61,0.584,1.229,0.85,1.854c0.094,0.222,0.186,0.441,0.275,0.66c4.264-0.535,8.5,0.323,8.922,0.412  C27.783,11.859,26.703,9.086,24.918,6.908L24.918,6.908z" fill-rule="evenodd" id="ball_1_"/></svg>