<?xml version="1.0" ?><!DOCTYPE svg  PUBLIC '-//W3C//DTD SVG 1.1//EN'  'http://www.w3.org/Graphics/SVG/1.1/DTD/svg11.dtd'><svg enable-background="new 0 0 30 30" height="30px" id="Blogger" version="1.1" viewBox="0 0 30 30" width="30px" xml:space="preserve" xmlns="http://www.w3.org/2000/svg" xmlns:xlink="http://www.w3.org/1999/xlink"><path d="M28,11h-2c-1.028,0-1.929-0.997-2-2c0-5.351-3.61-9-9-9H9C3.615,0,0.003,4.647,0,10v10c0,5.351,4.615,10,10,10h10  c5.389,0,10-4.647,10-10v-7C30,11.933,29.077,11,28,11z M9,7h6c1.031,0,2,0.969,2,2s-0.969,2-2,2H9c-1.031,0-2-0.969-2-2  S7.969,7,9,7z M21,23H9c-1.031,0-2-0.969-2-2s0.969-2,2-2h12c1.031,0,2,0.969,2,2S22.031,23,21,23z" id="B"/></svg>