<?xml version="1.0" ?><!DOCTYPE svg  PUBLIC '-//W3C//DTD SVG 1.1//EN'  'http://www.w3.org/Graphics/SVG/1.1/DTD/svg11.dtd'><svg enable-background="new 0 0 30 30" height="30px" id="Behance" version="1.1" viewBox="0 0 30 30" width="30px" xml:space="preserve" xmlns="http://www.w3.org/2000/svg" xmlns:xlink="http://www.w3.org/1999/xlink"><g><path d="M29,19h0.859C29.951,18.516,30,18.014,30,17.5c0-4.142-3.134-7.5-7-7.5s-7,3.358-7,7.5c0,4.143,3.134,7.5,7,7.5    c2.686,0,5.016-1.622,6.189-4h-3.704c-0.684,0.616-1.541,1-2.485,1c-1.739,0-3.204-1.256-3.755-3h7.51H29z M19.245,16    c0.551-1.744,2.016-3,3.755-3s3.204,1.256,3.755,3H19.245z" id="e"/><rect height="2" id="line" width="7" x="19" y="7"/><path d="M10.867,15.087C12.154,14.183,13,12.693,13,11c0-2.761-2.239-5-5-5v0H0v9v1v9h10c2.762,0,5-2.238,5-5    C15,17.535,13.213,15.499,10.867,15.087z M3,9h5c1.104,0,2,0.896,2,2c0,1.104-0.896,2-2,2H3V9z M9,22H3v-5h6    c1.141,0.231,2,1.29,2,2.5S10.141,21.769,9,22z" id="B"/></g></svg>